<svg width="32" height="32" viewBox="0 0 32 32" fill="none" xmlns="http://www.w3.org/2000/svg">
  <!-- Rocket body -->
  <path d="M16 2L20 10L22 14L22 22C22 23.1 21.1 24 20 24H12C10.9 24 10 23.1 10 22L10 14L12 10L16 2Z" fill="#FF6B6B"/>

  <!-- Rocket window -->
  <circle cx="16" cy="14" r="3" fill="#4ECDC4"/>

  <!-- Left wing -->
  <path d="M10 16L6 22L6 28L10 24L10 16Z" fill="#FFE66D"/>

  <!-- Right wing -->
  <path d="M22 16L26 22L26 28L22 24L22 16Z" fill="#FFE66D"/>

  <!-- Flame -->
  <path d="M12 24L14 28L16 30L18 28L20 24L16 26L12 24Z" fill="#FFA500"/>
  <path d="M14 28L15 30L16 31L17 30L18 28L16 29L14 28Z" fill="#FFD700"/>
</svg>
